<?xml version="1.0" encoding="UTF-8"?>
<svg version="1.1" viewBox="0 0 2048 2048" width="2048" height="2048" xmlns="http://www.w3.org/2000/svg">
<path transform="translate(937,71)" d="m0 0h63l38 3 42 6 38 8 33 9 36 12 28 11 26 12 16 8 23 12 20 12 30 20 19 14 14 11 13 11 10 9 8 7 17 16 7 7 7 8 14 15 9 11 13 16 14 19 14 21 13 21 14 25 12 24 3 7 9-1h32l18 2 23 5 21 7 20 9 19 11 14 10 11 9 12 11 11 11 9 11 14 19 11 19 8 16 7 16 10 30 6 26 4 29 2 22 6 1 3-11 7-16 10-16 12-13 12-9 10-5 7-2h13l2-6 38-76 10-19 38-76 11-14 9-10 7-8 3-4h6l2 1 1 9-8 27-83 166-10 19-1 5 6 12 3 13v17l-3 16-7 19-9 16-8 11 7 11 7 14 5 19v22l-4 15-21 43-11 23-14 27-13 23-18 34-18 36-13 29-12 27-5 13 6 2 10 6 10 11 8 16 4 14 2 16v10l-2 18-5 19-7 16-1 6 8 14 7 19 7 25 4 22 2 21v72l-2 28-5 39-6 28-8 23-11 25-12 23-8 12-10 13-13 13-16 12-17 11-15 9-23 12-26 11-20 6-22 4-10 1h-43l-18-2-10-2 2 22v30l-3 25-6 26-7 20-13 27-11 17-10 13-11 12-13 13 9 19 5 16 2 10 1 18-2 17-5 17-5 9-6 7-6 10-8 8-14 10-16 8-18 6-6 1h-12l-16-4-12-5-10-7-7-6-4 2-13 9-14 7-18 5-8 1h-17l-14-3-15-6-15-9-13-12-7-10-2-3-5 2-11 7-16 6-17 3h-11l-15-3-12-5-13-9-9-9-8-14-3-9-3-20v-27l1-7-39-1-208-7-3-1 3 15 1 10v12l-2 11-8 19-10 16-13 13-13 8-14 6-17 4-16 1-12-2-15-6-16-10-3 1-7 8-8 8-13 9-13 6-14 4-7 1h-15l-15-3-13-5-10-6-13-11-3-4-4 1-13 9-15 7-16 4h-17l-17-3-13-5-12-7-12-9-10-9-10-11-6-12-3-14v-32l5-21 7-16 6-11 3-4-1-3-11-9-9-9-9-11-8-10-10-15-14-27-8-21-6-22-4-22-19-3-25-6-30-10-25-11-20-11-21-14-14-11-12-11-8-7-7-8-9-10-12-16-13-21-8-16-8-18-9-27-6-27-3-23-1-13v-34l3-32 6-32 8-29 10-29 10-23 12-25 10-18 13-21 13-19 14-19 11-13 9-11 12-13 9-10 19-19 8-7 11-10 11-9 16-13 18-13 30-20 22-13 26-14 30-14 3-2-15-27-11-22-13 2h-22l-22-2-26-5-26-8-21-9-21-11-21-14-16-13-12-11-12-12-9-11-10-13-11-17-12-22-8-19-8-24-5-21-3-19-1-11v-40l3-24 5-23 10-30 14-29 12-19 10-13 12-14 17-17 14-11 15-11 23-13 23-10 22-7 23-5 15-2 13-1h23l23 2 7 1 12-22 11-20 14-22 11-16 14-19 13-16 9-11 11-12 7-8 32-32 8-7 15-13 14-11 13-10 17-12 18-12 18-11 21-12 29-15 27-12 31-12 33-11 34-9 32-7 39-6 31-3zm668 845-21 3h-30l-19-1h-11l-10 19-12 22-16 26v4l14 11 16 13 16 8 13 7h4l12-23 12-22 14-26 12-22 9-16v-3z" fill="#010000"/>
<path transform="translate(1163,411)" d="m0 0h27l19 2 25 5 24 8 20 9 19 11 14 10 11 9 12 11 8 8 9 11 11 15 9 15 8 15 10 26 6 24 3 19 1 13v23l-3 26-5 22-7 21-10 22-12 20-10 13-11 13-16 16-14 11-13 9-21 12-19 10-16 11-9 5-2 11v7l3 10 8 14 10 16 8 15 6 16 6 25 3 20 1 11v22l-1 20v28l-4 20-7 21-11 23-9 14-13 18-11 13-11 12-8 8-11 9-12 10-24 16-18 10-27 13-27 10-29 8-24 5-29 4-12 1h-57l-36-4-30-6-26-7-26-9-21-9-17-8-21-12-21-14-16-12-10-9-8-7-17-17-7-8-10-10-13-17-7-15-8-27-3-15-1-8v-39l4-26 7-30 11-33 13-33 8-17 10-30 3-10-1-7-4-6-8-7-16-8-15-8-15-10-13-10-12-11-12-12-11-14-12-18-11-21-9-24-5-19-3-19-1-10v-30l3-24 5-21 8-23 9-19 11-18 12-16 12-14 10-10 11-9 13-10 18-11 25-12 24-8 22-5 16-2h41l26 4 25 7 24 10 15 8 18 12 16 13 19 14 13 11 19 12 6 3h10l14-7 11-9 17-14 9-9 8-7 13-11 18-12 16-9 20-9 26-8 20-4z" fill="#F1C5A2"/>
<path transform="translate(453,1009)" d="m0 0 4 1 10 14 11 14 24 28 10 10 7 8 8 8 8 7 7 7 11 9 10 9 14 11 20 15 15 10 7 4 7 12 11 14 11 13 14 15 15 14 11 9 17 13 21 14 17 10 27 14 31 13 34 11 33 8 30 5 29 3 23 1h20l33-2 31-4 30-6 25-7 24-8 24-10 21-10 21-12 18-12 19-14 10-9 8-7 21-21 9-11 9-12 8-5 8-4 10-7 13-6 8-2 3 1 1 3v9l-5 19-11 28-13 29-5 15v15l6 11 4 6 2 6v22l-1 24-2 6-13 8-17 9-18 14-11 7-10 8-7 8-8 11-7 7-19 13-9 7-4 4 1 9 15 64 3 17-1 6-12 18-8 17-6 20-4 23-2 28-24 24-13 17-11 17-14 27-13 28-12 36-8 26-1 1-67-2-152-5-13-1-1-1-3-19-6-21-7-16-8-13-10-13-9-11-13-15-12-12-14-11-17-10-3-7-6-28-5-11-2-14-7-24-10-24-9-17-12-18-8-10-9-10-15-15-17-13-13-8-15-8-21-8-19-5-21-3-17-1-1-1v-11l1-11v-20l2-18 5-20 7-20 12-27 6-11-1-4-2-2-6 1-8 6-10 12-10 15-9 16-8 19-9 27-4 21-1 27-3 6-5 4-2 1-11 1-9-12-5-11-1-4v-18l3-28 4-19 7-19 14-27 16-27 12-19 17-25 9-13 5-12 1-14v-10l-12-2-12 1-11 5-8 6-10 13-20 30-12 19-14 24-15 28-8 20-5 17-4 23-3 32v15l3 16 5 13 7 13 4 6-2 4-10 8-13 12-12 14-11 15-10 18-8 17-9 27-5 25-2 15-10-1-24-6-21-7-25-11-18-10-17-12-11-9-10-9-12-12-11-14-9-13-8-14-8-16-7-18-7-26-4-26-1-12v-32l3-29 5-26 7-26 10-28 12-27 13-25 16-26 14-20 10-13 13-16 10-11 7-8 9-9 5-6 8-7 10-10 11-9 10-9 17-13 15-11 21-14 25-15 26-14 26-12z" fill="#4C3221"/>
<path transform="translate(937,118)" d="m0 0h63l35 3 35 5 26 5v2l5 2 18 14 14 11 22 18 13 12 12 11 17 16 12 11 8 7 12 11 15 14 56 56 7 8 10 11 7 8 12 14 11 12 9 11 9 10 9 11 12 15 14 21 13 22 12 25 7 22 2 9v5l-11 2-3-3-12-23-12-18-9-12-11-13-13-14-8-7-13-11-17-12-20-12-25-12-25-9-24-6-25-4-12-1h-34l-26 3-28 6-27 9-18 8-21 11-18 12-13 10-14 12-16 16-9 11-3 4h-3l-9-11-19-19-11-9-15-11-21-13-22-11-24-9-21-6-28-5-26-2h-15l-26 2-23 4-23 6-20 7-24 11-16 9-18 12-14 11-12 11-18 18-11 14-10 14-8 13-12 23-10 25-7 25-4 21-2 18v40l3 24 6 26 9 27 14 29 9 15 12 17 12 14 11 12 14 13 17 13 18 12 22 12-2 4-10 16-8 15-11 26-10 30-7 28-5 27-2 16v52l-6-4-15-14-12-11-11-11-7-8-12-13-9-11-12-15-13-18-15-23-9-15-10-18-8-15-14-31-13-35-9-30-6-24-6-32-4-32-2-29v-44l3-39 5-34 8-36 8-29 10-29 12-29 14-29 10-19 12-20 14-21 10-14 10-13 13-16 12-14 7-7 7-8 18-18 8-7 12-11 11-9 14-11 19-14 15-10 19-12 23-13 27-14 32-14 30-11 25-8 30-8 34-7 35-5z" fill="#4C3221"/>
<path transform="translate(1096,132)" d="m0 0 9 1 30 8 36 12 28 11 28 13 27 14 25 15 18 12 14 10 12 9 16 13 11 9 16 15 7 7 6 5 7 8 10 10 7 8 11 13 13 17 14 19 11 17 15 25 12 23 8 16 12 28 12 34 9 32 7 32 5 33 3 34v60l-3 33-5 33-9 40-9 30-11 31-12 28-10 21-12 22-14 23-13 19-13 18-13 16-11 13-11 12-9 10-18 18-8 7-11 10-12 9-10 6-14 11h-2l3-11 8-26 4-22 2-23v-21l-2-22-5-29-6-22-6-16-8-17-10-17v-2l17-8 21-12 17-12 16-13 13-12 14-15 13-17 11-17 12-22 10-24 8-26 5-24 2-16 1-14v-24l-2-23-6-31-8-26-7-17 1-3 11-1-5-21-6-17-13-27-14-23-12-17-13-16-11-13-9-11-11-12-7-8-12-14-11-12-7-8-12-13-56-56-8-7-16-15-8-7-12-11-13-12-17-16-14-12-14-11-16-13-16-12z" fill="#382419"/>
<path transform="translate(1746,1231)" d="m0 0 9 1 5 8 7 21 5 21 3 25v71l-2 26-5 38-5 21-7 20-13 28-11 18-9 11-7 7-17 12-19 12-22 12-27 11-19 5-14 2-24 1-20-1-17-3-14-4-12-2-9-19-10-17-10-14-9-11-11-12-13-12-14-10-14-7-5-6-6-20-7-14 1-7 5-5 2-1h6l10 5 17 10 43 23 21 9 24 12 25 9 20 8 5-1 3-3-1-12-6-26-8-16-9-16-9-19-3-11v-14l3-15 6-14 8-11 12-14 11-12 7-8 8-7 13-12 8-7 10-9 14-11 13-9 19-12 20-11 21-8 12-3z" fill="#4C3221"/>
<path transform="translate(514,1505)" d="m0 0h28l17 3 21 7 19 10 14 10 10 9 13 13 11 15 8 13 10 21 7 21 4 15 5 9 2 18 6 26 4 10 7 9 10 7 14 8 11 9 12 12 9 11 11 13 9 14 5 11 4 14v5l-7-6-12-10-15-10-18-10-25-10-24-7-26-5-19-2h-43l-26 3-24 5-24 7-22 9-23 12-16 11-5 1-13-12-10-10-10-13-10-16-11-23-6-19-5-25-1-9v-30l3-22 5-19 6-16 8-16 9-14 8-10 9-10 11-10 15-10 16-8 18-6z" fill="#4C3221"/>
<path transform="translate(1347,1514)" d="m0 0h21l20 8 16 9 14 10 13 12 7 7 11 14 11 18 10 21 6 19 5 25 1 10v28l-3 22-5 19-7 19-11 21-10 14-11 13-10 10-3 1-18-13-16-9-21-10-30-10-22-5-31-4h-44l-25 3-27 6-24 8-22 10-15 9-2-1 8-20 16-33 11-18 9-12 13-15 10-9 8-7 5-8 3-11 1-26 3-21 5-17 7-14 12-16 13-15 13-13 13-8 14-6 37-13 5-1z" fill="#4C3221"/>
<path transform="translate(347,458)" d="m0 0h38l2 1-3 10-12 36-8 29-7 33-5 33-1 8-7-1-16-4-7-1h-20l-17 2-15 5-8 7-9 12-6 12-4 16-2 17-1 27 1 8 4 2h4l5-17 8-16 7-11 10-10 16-8 20-4h11l11 4 10 9 4 9 1 4v12l-2 13v19l3 30 6 38 9 39 9 30 7 20v2h-23l-21-3-19-5-20-7-22-11-17-11-13-10-12-11-12-12-11-14-10-14-12-22-8-19-6-19-5-24-2-19v-27l3-24 6-25 8-21 8-16 9-15 12-16 11-12 12-12 17-13 20-12 15-7 27-9 20-4z" fill="#F1C5A2"/>
<path transform="translate(1459,666)" d="m0 0 4 4 9 19 10 29 5 4h9l5 10 9 25 5 14 2 3 5 2v8l-7 28-12 36-8 21-10 23-9 19-12 22-14 23-13 19-13 18-13 16-11 13-11 12-9 10-18 18-8 7-11 10-12 9-10 6-14 11h-2l3-11 8-26 4-22 2-23v-21l-2-22-5-29-6-22-6-16-8-17-10-17v-2l17-8 21-12 17-12 16-13 13-12 14-15 13-17 11-17 5-9 3-3 12-19 7-14 5-15 5-22 8-9z" fill="#4C3221"/>
<path transform="translate(1550,472)" d="m0 0h16l23 3 19 5 20 8 15 8 16 11 14 12 14 14 13 17 10 15 10 19 10 25 7 25 4 21 2 17 1 26-4 4-10 3-9 6-8 13-17 32-12 22-28 52-13 23-5 3-19 8-20 6-21 3h-16l-17-1 1-7 12-36 9-34 7-36 4-29 3-35 1-36 9-6 12-6 5-1h12l11 4 11 7 8 8 8 13 7 15 3 12v11h4l8-8 11-14 3-6 2-14-1-13-4-11-10-17-8-10-13-10-16-8-16-5-7-1h-11l-19 3-9 3h-3l-6-40-6-30-8-31-9-28z" fill="#F1C5A2"/>
<path transform="translate(721,1636)" d="m0 0 11 1 3 1 6 9 23 12 15 9 8 5 8 8 20 9 13 5 20 5 32 5 32 8 18 2h15l40-2 17-3 24-6 36-8 17-7 23-11 19-10 33-17 5-3h2v-6h1v14l-24 24-13 17-11 17-14 27-13 28-12 36-8 26-1 1-67-2-152-5-13-1-1-1-3-19-6-21-7-16-8-13-10-13-9-11-13-15-12-12-14-11-17-10-3-7-6-28-4-9z" fill="#4C3221"/>
<path transform="translate(1440,1048)" d="m0 0h5l1 1-1 8-10 22-5 14-3 14-3 25v18l2 11-12 11-5 4-14 16-8 14-3 12v8l3 12-1 4-8 8-9 15-6 16-3 13-2 19-7 7-4 8v19l-3 8v25l4 22 6 23 7 21 9 20v3h-38l-18 3-27 9-21 8-19 9-13 9-10 9-11 11-18 22-1-2-2-15-11-48-6-26 1-6 10-8 19-13 10-9 12-16 10-9 14-9 18-14 26-14 4-3 1-5 1-24v-22l-4-9-8-14v-15l5-15 16-36 9-24 4-16v-12l-8 1-12 5-12 7-3 3-2-1 13-12 20-15 18-14 14-8 16-13 14-12 13-12 7-7 9-11 9-10 7-8 9-8z" fill="#382419"/>
<path transform="translate(1570,1087)" d="m0 0h17l15 4 14 7 14 11 13 12 14 14 8 7 14 14 8 7 10 10 9 11 3 4-1 3-19 7-23 11-23 14-22 15-16 13-13 12-11 9-17 16-12 12-7 8-13 15-11 15-9 17-6 18-2 5-4-2-9-8-16-11-15-9-18-10-23-12-13-7-1-3v-12l4-23 4-7 5-3 4-1h11l11 4 16 12 18 11 11 6h5l4-8-1-11-4-8-11-10-14-10-16-11-13-10-5-5-3-5 1-9 5-8 9-10 9-7 12-6 12-3 13 1 16 5 16 8 11 7 15 11 8 5 5-1 3-3 1-5-3-9-5-5-16-6-10-7-14-12-8-9-3-7v-13l4-10 7-11 12-12 13-10 16-9z" fill="#F1C5A2"/>
<path transform="translate(599,1804)" d="m0 0h36l25 3 25 6 22 8 21 11 11 8 10 9 8 8 10 15 5 8 2 8-1 13-4 15-6 8-8 7-12 5-4 1h-12l-12-6-7-6-9-13-7-14-6-20h-13l-2 16-4 15-8 16-9 10-14 15-11 6-4 1h-14l-11-4-9-7-9-10-9-13-6-13-5-15v-2l-6 1h-8l-1 8-6 18-7 13-9 10-10 6-3 1h-15l-15-2-12-6-7-7-7-10-2-8v-17l4-15 7-14 8-10 9-10 12-10 16-10 16-8 20-8 22-6 24-4z" fill="#F1C5A2"/>
<path transform="translate(1244,1809)" d="m0 0h36l24 3 22 5 24 8 21 10 15 10 11 9 9 9 10 14 6 14 2 9v17l-4 15-3 5-8 7-10 7-13 6-10 1-10-3-6-4-7-8-6-12-4-13-4-15-4-4-10 5-8 18-7 11-10 12-10 8-12 5-10 2h-7l-13-4-11-7-14-14-10-13-6-13-2-10h-5l-11 19-11 12-9 7-11 5-9 2h-10l-9-3-6-4-7-7-4-8-2-8v-16l4-16 8-16 9-11 9-9 17-12 23-11 21-7 24-5z" fill="#F1C5A2"/>
<path transform="translate(1787,728)" d="m0 0h19l13 4 10 6 12 10 7 10 4 10 1 5v12l-4 18-7 21-5 10-1 1h-6l-22-12-4-2-1 6 5 5 11 8 7 7 2 3v7l-12 24-3 2-9-3-15-10-12-7h-3l-3 5 2 4 10 8 18 10 7 5-8 18-5 10-4 1v2l-2 1h-6l-14-9-18-10-7-3h-4l-1 2v9l6 1 18 11 16 7 7 7-3 9-9 19-3 2h-8l-30-12-12-3-1 6 3 7 9 6 21 8 11 4-2 6-10 18-5 10-5 2-7-4-11-8-27-14-11-5-14-7-13-8-10-5-8-1h-10l-1-4 13-23 13-25 20-38 8-17 9-16 9-21 13-24 14-25 9-14 10-13 10-10 14-9 10-4z" fill="#4EE4E0"/>
<path transform="translate(1165,611)" d="m0 0h20l14 3 13 5 11 6 13 11 8 9 8 14 5 13 3 16v17l-3 16-6 16-9 14-9 10-10 9-14 8-16 6-11 2h-20l-15-3-12-5-11-6-11-9-9-10-8-13-5-12-4-17v-21l3-15 6-15 8-13 9-10 7-7 14-9 13-6z" fill="#010000"/>
<path transform="translate(738,610)" d="m0 0h12l18 3 13 5 14 9 10 9 8 9 8 14 5 13 2 9 1 10v10l-2 14-5 16-7 13-7 9-8 9-12 9-16 8-13 4-16 2-15-1-16-4-17-8-10-8-6-5-8-10-8-14-6-18-1-6v-24l4-17 5-12 7-11 11-13 10-8 14-8 13-5 9-2z" fill="#010000"/>
<path transform="translate(1767,1435)" d="m0 0h1v7l-5 21-7 20-13 28-11 18-9 11-7 7-17 12-19 12-22 12-27 11-19 5-14 2-24 1-20-1-17-3-14-4-12-2-9-19-10-17-10-14-9-11-11-12-13-12-14-10-14-7-5-6-6-20-7-14 1-7 5-5 2-1h6l10 5 17 10 43 23 21 9 24 12 25 9 5 2v2l11 7 11 3 26 3 28 1 21-1 19-4 20-8 13-7 12-9 12-11 9-10 13-18 8-12z" fill="#382419"/>
<path transform="translate(1203,1021)" d="m0 0 1 3-4 27-8 14-12 16-12 13-17 16-15 12-16 10-27 15-23 12-15 6-16 4-30 4-13 1h-54l-31-3-29-5-28-7-30-10-23-10-23-12-13-9-14-12-14-14-9-11-13-17-5-9-1-9v-16l5 2 16 12 6 5 5 6 11 9 14 9 16 8 25 11 25 10 27 9 26 7 27 5 25 3 16 1h32l26-2 32-5 27-7 23-8 29-14 16-10 14-11 13-11 10-9 8-7 7-8 7-7z" fill="#020101"/>
<path transform="translate(1351,836)" d="m0 0 2 1-12 12-7 8-9 9-7 12-3 11v8l6 27 4 9 7 7 4 1 10-5 10-1h2l4-9 4-4 9-4 17-10 8-3h12l8-7 7-7 7-8 8-6 2-1h20l15 2 8 4 1 4-12 25-12 22-14 23-13 19-13 18-13 16-11 13-11 12-9 10-18 18-8 7-11 10-12 9-10 6-14 11h-2l3-11 8-26 4-22 2-23v-21l-2-22-5-29-6-22-6-16-8-17-10-17v-2l17-8 21-12 17-12z" fill="#382419"/>
<path transform="translate(400,749)" d="m0 0 1 3 4 2 4 7 4 22 6 17 8 16 10 18 13 18 10 13 11 13 9 11 14 15 9 10 8 8 22 18 21 14 17 10 4 2 4-1 13-19 14-21 8-14 11-23 4-10 2-2h6l-2 5-8 13-12 26-11 30-8 29-7 36-2 16v52l-6-4-15-14-12-11-11-11-7-8-12-13-9-11-12-15-13-18-15-23-9-15-10-18-8-15-14-31-13-35-9-30-6-24-6-32z" fill="#382419"/>
<path transform="translate(1624,978)" d="m0 0 5 1 32 14 27 16 18 13 18 11 12 7 1 5-8 15-9 23-5 16-5 7-5 3-7 1-11-4-11-7-11-13-14-11-16-9-15-6-14-5-8-6-3-6v-10l6-16 9-16 9-15z" fill="#4EE4E0"/>
<path transform="translate(721,1636)" d="m0 0 11 1 3 1 6 9 23 12 15 9 8 5 8 8 20 9 13 5 20 5 32 5 32 8 18 2h15l40-2 17-3 24-6 36-8 17-7 23-11 19-10 33-17 5-3h2v-6h1v14l-21 21v-3l-9 2-16 7-16 10-9 6-14 7-21 7-19 5-13 1-28 2-31 4-45 2-11 1h-21l-19-5-13-5-29-14-16-6-18-4h-16l-5 2-2 4-1 6-8-6-10-8-17-10-3-7-6-28-4-9z" fill="#382419"/>
<path transform="translate(724,627)" d="m0 0h7l10 3 9 7 5 8 2 6v16l-4 9-6 8-8 5-7 2h-10l-10-4-8-7-5-8-2-8v-10l4-11 6-8 9-6z" fill="#FCFBFA"/>
<path transform="translate(1155,631)" d="m0 0h10l9 3 9 7 5 8 2 6v13l-4 10-7 8-10 5-4 1h-11l-9-3-9-7-5-8-2-7v-11l4-10 7-8 8-5z" fill="#FCFBFA"/>
<path transform="translate(1030,867)" d="m0 0 10 1 6 4 3 5 1 6-3 9-8 8-13 10-15 15-7 6-5 2h-8l-7-4-4-7v-14l5-13 6-8 9-7 17-9z" fill="#030201"/>
<path transform="translate(869,867)" d="m0 0h9l10 3 10 6 15 13 6 8 6 11 3 5 1 7-3 7-6 5h-11l-12-7-17-13-16-12-6-7-1-2v-10l5-10z" fill="#030201"/>
<path transform="translate(406,1442)" d="m0 0h1l3 16 5 13 7 13 4 6-2 4-10 8-13 12-12 14-6 8-1-3-4-2-5-8v-6l15-25 10-24 7-18z" fill="#382419"/>
<path transform="translate(1864,652)" d="m0 0 5 1 2 4v14l-4 16-8 16-5 7-5-1-13-8-4-2 1-7 7-16 8-11 5-6 9-6z" fill="#4EE4E0"/>
<path transform="translate(1389,1364)" d="m0 0 5 1 25 13 24 14 16 10 11 10 6 5 7 8-3 1-25-13-17-10-14-6-15-4-16-2-3-12z" fill="#4EE4E0"/>
<path transform="translate(1481,1069)" d="m0 0 9 1 5 5v9l-4 5-5 5-8 14-5 10-5 3h-6l-6-5-2-6 1-11 4-12 6-9 8-6z" fill="#F1C5A2"/>
<path transform="translate(1100,1737)" d="m0 0 1 2-14 30-12 36-6 20h-1l-2-8-5-14-1-5v-13l3-10 7-12 9-10 12-8 7-5z" fill="#382419"/>
<path transform="translate(1753,1116)" d="m0 0 3 1 4 9 1 5v21l-4 16-1 3h-2l-10-14-11-13 1-4 11-17z" fill="#F1C5A2"/>
<path transform="translate(810,1315)" d="m0 0h3l-1 5-3 6-22 12-12 9-8 8-1 2-5-1-1-3 4-12 10-7 23-12z" fill="#382419"/>
<path transform="translate(1497,1482)" d="m0 0 9 1 12 6v15l-2 2-4 1h-10l-7-3-2-4v-15z" fill="#4C3221"/>
<path transform="translate(1083,1321)" d="m0 0 9 3 11 6 14 12 17 14 12 11 7 11 7 16 1 5-5-5-9-12-10-13-12-14-8-8-17-13-18-10z" fill="#382419"/>
<path transform="translate(293,1110)" d="m0 0 2 1-39 39v-3l14-14 5-6 8-7z" fill="#402A1C"/>
<path transform="translate(1609,1309)" d="m0 0 2 1-29 29v-3l17-17z" fill="#402A1C"/>
<path transform="translate(1192,1691)" d="m0 0 2 1-21 21v-3l11-12z" fill="#3F291C"/>
<path transform="translate(1281,1183)" d="m0 0 2 1-9 7-5 4 2-5 6-5z" fill="#382419"/>
</svg>
